<svg width="388" height="440" viewBox="0 0 388 440" fill="none" xmlns="http://www.w3.org/2000/svg">
<path d="M387.416 0.828003L352.167 395.707L193.721 439.633L35.7117 395.769L0.5 0.828003H387.416Z" fill="#264DE4"/>
<path d="M321.99 370.562L352.113 33.1202H193.958V406.058L321.99 370.562Z" fill="#2965F1"/>
<path d="M81.2222 179.598L85.5635 228.035H193.958V179.598H81.2222Z" fill="#EBEBEB"/>
<path d="M193.958 81.5586H193.791H72.4989L76.9021 129.997H193.958V81.5586Z" fill="#EBEBEB"/>
<path d="M193.958 355.792V305.396L193.746 305.453L139.8 290.887L136.352 252.255H110.138H87.7278L94.5139 328.31L193.735 355.854L193.958 355.792Z" fill="#EBEBEB"/>
<path d="M253.436 228.035L247.814 290.856L193.791 305.437V355.831L293.091 328.31L293.819 320.126L305.202 192.605L306.384 179.598L315.128 81.5586H193.791V129.997H262.045L257.637 179.598H193.791V228.035H253.436Z" fill="white"/>
</svg>
